<svg xmlns="http://www.w3.org/2000/svg" viewBox="0 0 48 48" role="img" aria-label="TikTok">
  <path fill="#25f4ee" d="M20.5 17.2v17.1a8.1 8.1 0 1 1-6.9-8v5.2a3.1 3.1 0 1 0 2 2.9V9h5.5c.6 4.5 3.1 7.2 7.5 8.1v5.3a13.2 13.2 0 0 1-8.1-3.1z"/>
  <path fill="#fe2c55" d="M23.8 14.8v17.1a8.1 8.1 0 1 1-6.9-8v5.2a3.1 3.1 0 1 0 2 2.9V6.6h5.5c.6 4.5 3.1 7.2 7.5 8.1V20a13.2 13.2 0 0 1-8.1-3.1z"/>
  <path fill="#fff" d="M22.2 16v17.1a8.1 8.1 0 1 1-6.9-8v5.2a3.1 3.1 0 1 0 2 2.9V7.8h5.5c.6 4.5 3.1 7.2 7.5 8.1v5.3a13.2 13.2 0 0 1-8.1-3.1z"/>
</svg>
